# xmcd
#
# Track frame offsets: 
#        183
#        24860
#        36255
#        54478
#        68958
#        90538
#        109155
#        119590
#        137768
#        154478
#        166200
#        187660
#        205718
#        223718
#        237873
#        254258
#        268765
#        289945
#        302838
#        311875
#
# Disc length: 4372 seconds
#
# Revision: 0
# Processed by: cddbd v1.5.2PL0 Copyright (c) Steve Scherf et al.
# Submitted via: ExactAudioCopy v1.3
#
DISCID=25111214
DTITLE=Various Artist - Dublin Songs
DYEAR=1991
DGENRE=Folk
TTITLE0=The Band of 'Dubs' - Molly Malone
TTITLE1=The Dubliners - The rocky road to Dublin… Within a mile of Dub
TTITLE1=lin (instrumental medley)
TTITLE2=Paddy Reilly - Spanish lady
TTITLE3=Brendan Grace - Biddy Mulligan
TTITLE4=The Dubliners - Rare ould times
TTITLE5=The Fureys and Davey Arthur - St Laurence O’Toole
TTITLE6=Paddy Reilly - Dublin, my Dublin
TTITLE7=Brendan Grace - Ringsend Rose
TTITLE8=Jim McCann - Raglan Road
TTITLE9=Paddy Reilly - Dublin saunter
TTITLE10=The Fureys and Davey Arthur - Night ferry
TTITLE11=Brendan Grace - Dublin town
TTITLE12=Jim McCann - The foggy dew
TTITLE13=The Dubliners - The auld triangle
TTITLE14=Jim McCann - Summer in Dublin
TTITLE15=The Dubliners - Anna Liffey
TTITLE16=The Fureys and Davey Arthur - Dublin in my tears
TTITLE17=Paddy Reilly - The rocky road to Dublin
TTITLE18=Ronnie Drew - Jem
TTITLE19=The Fureys and Davey Arthur - Dublin – take me
EXTD=
EXTT0=
EXTT1=
EXTT2=
EXTT3=
EXTT4=
EXTT5=
EXTT6=
EXTT7=
EXTT8=
EXTT9=
EXTT10=
EXTT11=
EXTT12=
EXTT13=
EXTT14=
EXTT15=
EXTT16=
EXTT17=
EXTT18=
EXTT19=
PLAYORDER=
